<?xml version="1.0" encoding="UTF-8"?>
<!DOCTYPE svg PUBLIC "-//W3C//DTD SVG 1.1//EN" "http://www.w3.org/Graphics/SVG/1.1/DTD/svg11.dtd">
<svg xmlns="http://www.w3.org/2000/svg" xmlns:xlink="http://www.w3.org/1999/xlink" version="1.1" width="930px" height="581px" viewBox="-0.5 -0.5 930 581" style="background-color: rgb(255, 255, 255);"><defs><clipPath id="mx-clip-650-160-30-30-0"><rect x="650" y="160" width="30" height="30"/></clipPath><clipPath id="mx-clip-686-160-214-30-0"><rect x="686" y="160" width="214" height="30"/></clipPath><clipPath id="mx-clip-650-190-30-30-0"><rect x="650" y="190" width="30" height="30"/></clipPath><clipPath id="mx-clip-686-190-214-30-0"><rect x="686" y="190" width="214" height="30"/></clipPath><clipPath id="mx-clip-686-220-214-30-0"><rect x="686" y="220" width="214" height="30"/></clipPath><clipPath id="mx-clip-686-250-214-30-0"><rect x="686" y="250" width="214" height="30"/></clipPath><clipPath id="mx-clip-686-280-214-30-0"><rect x="686" y="280" width="214" height="30"/></clipPath><clipPath id="mx-clip-600-370-30-30-0"><rect x="600" y="370" width="30" height="30"/></clipPath><clipPath id="mx-clip-636-370-204-30-0"><rect x="636" y="370" width="204" height="30"/></clipPath><clipPath id="mx-clip-636-400-204-30-0"><rect x="636" y="400" width="204" height="30"/></clipPath><clipPath id="mx-clip-636-430-204-30-0"><rect x="636" y="430" width="204" height="30"/></clipPath><clipPath id="mx-clip-600-460-30-30-0"><rect x="600" y="460" width="30" height="30"/></clipPath><clipPath id="mx-clip-636-460-204-30-0"><rect x="636" y="460" width="204" height="30"/></clipPath><clipPath id="mx-clip-600-490-30-30-0"><rect x="600" y="490" width="30" height="30"/></clipPath><clipPath id="mx-clip-636-490-204-30-0"><rect x="636" y="490" width="204" height="30"/></clipPath><clipPath id="mx-clip-600-520-30-30-0"><rect x="600" y="520" width="30" height="30"/></clipPath><clipPath id="mx-clip-636-520-204-30-0"><rect x="636" y="520" width="204" height="30"/></clipPath><clipPath id="mx-clip-636-550-204-30-0"><rect x="636" y="550" width="204" height="30"/></clipPath><clipPath id="mx-clip-290-190-30-30-0"><rect x="290" y="190" width="30" height="30"/></clipPath><clipPath id="mx-clip-326-190-214-30-0"><rect x="326" y="190" width="214" height="30"/></clipPath><clipPath id="mx-clip-326-220-214-30-0"><rect x="326" y="220" width="214" height="30"/></clipPath><clipPath id="mx-clip-326-250-214-30-0"><rect x="326" y="250" width="214" height="30"/></clipPath><clipPath id="mx-clip-326-280-214-30-0"><rect x="326" y="280" width="214" height="30"/></clipPath><clipPath id="mx-clip-326-310-214-30-0"><rect x="326" y="310" width="214" height="30"/></clipPath><clipPath id="mx-clip-326-340-214-30-0"><rect x="326" y="340" width="214" height="30"/></clipPath><clipPath id="mx-clip-326-370-214-30-0"><rect x="326" y="370" width="214" height="30"/></clipPath><clipPath id="mx-clip-326-400-214-30-0"><rect x="326" y="400" width="214" height="30"/></clipPath><clipPath id="mx-clip-326-430-214-30-0"><rect x="326" y="430" width="214" height="30"/></clipPath><clipPath id="mx-clip-326-460-214-30-0"><rect x="326" y="460" width="214" height="30"/></clipPath><clipPath id="mx-clip-510-20-30-30-0"><rect x="510" y="20" width="30" height="30"/></clipPath><clipPath id="mx-clip-546-20-204-30-0"><rect x="546" y="20" width="204" height="30"/></clipPath><clipPath id="mx-clip-510-50-30-30-0"><rect x="510" y="50" width="30" height="30"/></clipPath><clipPath id="mx-clip-546-50-204-30-0"><rect x="546" y="50" width="204" height="30"/></clipPath><clipPath id="mx-clip-510-80-30-30-0"><rect x="510" y="80" width="30" height="30"/></clipPath><clipPath id="mx-clip-546-80-204-30-0"><rect x="546" y="80" width="204" height="30"/></clipPath><clipPath id="mx-clip-0-220-30-30-0"><rect x="0" y="220" width="30" height="30"/></clipPath><clipPath id="mx-clip-36-220-214-30-0"><rect x="36" y="220" width="214" height="30"/></clipPath><clipPath id="mx-clip-0-250-30-30-0"><rect x="0" y="250" width="30" height="30"/></clipPath><clipPath id="mx-clip-36-250-214-30-0"><rect x="36" y="250" width="214" height="30"/></clipPath><clipPath id="mx-clip-0-280-30-30-0"><rect x="0" y="280" width="30" height="30"/></clipPath><clipPath id="mx-clip-36-280-214-30-0"><rect x="36" y="280" width="214" height="30"/></clipPath><style type="text/css">@import url(https://fonts.googleapis.com/css?family=Permanent+Marker);&#xa;</style></defs><g><path d="M 650 160 L 650 145 L 900 145 L 900 160" fill="#ffffff" stroke="#000000" stroke-miterlimit="10" pointer-events="all"/><path d="M 650 160 L 650 310 L 900 310 L 900 160" fill="none" stroke="#000000" stroke-miterlimit="10" pointer-events="none"/><path d="M 650 160 L 900 160" fill="none" stroke="#000000" stroke-miterlimit="10" pointer-events="none"/><path d="M 680 160 L 680 310" fill="none" stroke="#000000" stroke-miterlimit="10" pointer-events="none"/><g fill="#000000" font-family="Helvetica" font-weight="bold" pointer-events="none" text-anchor="middle" font-size="12px"><text x="774.5" y="157">poems</text></g><path d="M 650 160 M 900 160 M 900 190 L 650 190" fill="none" stroke="#000000" stroke-miterlimit="10" pointer-events="none"/><path d="M 650 160 M 680 160 M 680 190 M 650 190" fill="none" stroke="#000000" stroke-miterlimit="10" pointer-events="none"/><g fill="#000000" font-family="Helvetica" font-weight="bold" pointer-events="none" clip-path="url(#mx-clip-650-160-30-30-0)" text-anchor="middle" font-size="12px"><text x="664.5" y="179.5">PK</text></g><path d="M 680 160 M 900 160 M 900 190 M 680 190" fill="none" stroke="#000000" stroke-miterlimit="10" pointer-events="none"/><g fill="#000000" font-family="Helvetica" font-weight="bold" text-decoration="underline" pointer-events="none" clip-path="url(#mx-clip-686-160-214-30-0)" font-size="12px"><text x="687.5" y="179.5">id VARCHAR(64) NOT NULL </text></g><path d="M 650 190 M 900 190 M 900 220 M 650 220" fill="none" stroke="#000000" stroke-miterlimit="10" pointer-events="none"/><path d="M 650 190 M 680 190 M 680 220 M 650 220" fill="none" stroke="#000000" stroke-miterlimit="10" pointer-events="none"/><g fill="#000000" font-family="Helvetica" pointer-events="none" clip-path="url(#mx-clip-650-190-30-30-0)" text-anchor="middle" font-size="12px"><text x="664.5" y="209.5">FK</text></g><path d="M 680 190 M 900 190 M 900 220 M 680 220" fill="none" stroke="#000000" stroke-miterlimit="10" pointer-events="none"/><g fill="#000000" font-family="Helvetica" pointer-events="none" clip-path="url(#mx-clip-686-190-214-30-0)" font-size="12px"><text x="687.5" y="209.5">user_id VARCHAR(64) NOT NULL</text></g><path d="M 650 220 M 900 220 M 900 250 M 650 250" fill="none" stroke="#000000" stroke-miterlimit="10" pointer-events="none"/><path d="M 650 220 M 680 220 M 680 250 M 650 250" fill="none" stroke="#000000" stroke-miterlimit="10" pointer-events="none"/><path d="M 680 220 M 900 220 M 900 250 M 680 250" fill="none" stroke="#000000" stroke-miterlimit="10" pointer-events="none"/><g fill="#000000" font-family="Helvetica" pointer-events="none" clip-path="url(#mx-clip-686-220-214-30-0)" font-size="12px"><text x="687.5" y="239.5">created_on DATE NOT NULL</text></g><path d="M 650 250 M 900 250 M 900 280 M 650 280" fill="none" stroke="#000000" stroke-miterlimit="10" pointer-events="none"/><path d="M 650 250 M 680 250 M 680 280 M 650 280" fill="none" stroke="#000000" stroke-miterlimit="10" pointer-events="none"/><path d="M 680 250 M 900 250 M 900 280 M 680 280" fill="none" stroke="#000000" stroke-miterlimit="10" pointer-events="none"/><g fill="#000000" font-family="Helvetica" pointer-events="none" clip-path="url(#mx-clip-686-250-214-30-0)" font-size="12px"><text x="687.5" y="269.5">updated_on DATE NOT NULL</text></g><path d="M 650 280 M 900 280 M 900 310 M 650 310" fill="none" stroke="#000000" stroke-miterlimit="10" pointer-events="none"/><path d="M 650 280 M 680 280 M 680 310 M 650 310" fill="none" stroke="#000000" stroke-miterlimit="10" pointer-events="none"/><path d="M 680 280 M 900 280 M 900 310 M 680 310" fill="none" stroke="#000000" stroke-miterlimit="10" pointer-events="none"/><g fill="#000000" font-family="Helvetica" pointer-events="none" clip-path="url(#mx-clip-686-280-214-30-0)" font-size="12px"><text x="687.5" y="299.5">text TEXT NOT NULL</text></g><path d="M 600 370 L 600 350 L 840 350 L 840 370" fill="#ffffff" stroke="#000000" stroke-miterlimit="10" pointer-events="none"/><path d="M 600 370 L 600 580 L 840 580 L 840 370" fill="none" stroke="#000000" stroke-miterlimit="10" pointer-events="none"/><path d="M 600 370 L 840 370" fill="none" stroke="#000000" stroke-miterlimit="10" pointer-events="none"/><path d="M 630 370 L 630 580" fill="none" stroke="#000000" stroke-miterlimit="10" pointer-events="none"/><g fill="#000000" font-family="Helvetica" font-weight="bold" pointer-events="none" text-anchor="middle" font-size="12px"><text x="719.5" y="364.5">comments</text></g><path d="M 600 370 M 840 370 M 840 400 L 600 400" fill="none" stroke="#000000" stroke-miterlimit="10" pointer-events="none"/><path d="M 600 370 M 630 370 M 630 400 M 600 400" fill="none" stroke="#000000" stroke-miterlimit="10" pointer-events="none"/><g fill="#000000" font-family="Helvetica" font-weight="bold" pointer-events="none" clip-path="url(#mx-clip-600-370-30-30-0)" text-anchor="middle" font-size="12px"><text x="614.5" y="389.5">PK</text></g><path d="M 630 370 M 840 370 M 840 400 M 630 400" fill="none" stroke="#000000" stroke-miterlimit="10" pointer-events="none"/><g fill="#000000" font-family="Helvetica" font-weight="bold" text-decoration="underline" pointer-events="none" clip-path="url(#mx-clip-636-370-204-30-0)" font-size="12px"><text x="637.5" y="389.5">id VARCHAR(64) NOT NULL </text></g><path d="M 600 400 M 840 400 M 840 430 M 600 430" fill="none" stroke="#000000" stroke-miterlimit="10" pointer-events="none"/><path d="M 600 400 M 630 400 M 630 430 M 600 430" fill="none" stroke="#000000" stroke-miterlimit="10" pointer-events="none"/><path d="M 630 400 M 840 400 M 840 430 M 630 430" fill="none" stroke="#000000" stroke-miterlimit="10" pointer-events="none"/><g fill="#000000" font-family="Helvetica" pointer-events="none" clip-path="url(#mx-clip-636-400-204-30-0)" font-size="12px"><text x="637.5" y="419.5">created_on DATE NOT NULL</text></g><path d="M 600 430 M 840 430 M 840 460 M 600 460" fill="none" stroke="#000000" stroke-miterlimit="10" pointer-events="none"/><path d="M 600 430 M 630 430 M 630 460 M 600 460" fill="none" stroke="#000000" stroke-miterlimit="10" pointer-events="none"/><path d="M 630 430 M 840 430 M 840 460 M 630 460" fill="none" stroke="#000000" stroke-miterlimit="10" pointer-events="none"/><g fill="#000000" font-family="Helvetica" pointer-events="none" clip-path="url(#mx-clip-636-430-204-30-0)" font-size="12px"><text x="637.5" y="449.5">updated_on DATE NOT NULL</text></g><path d="M 600 460 M 840 460 M 840 490 M 600 490" fill="none" stroke="#000000" stroke-miterlimit="10" pointer-events="none"/><path d="M 600 460 M 630 460 M 630 490 M 600 490" fill="none" stroke="#000000" stroke-miterlimit="10" pointer-events="none"/><g fill="#000000" font-family="Helvetica" pointer-events="none" clip-path="url(#mx-clip-600-460-30-30-0)" text-anchor="middle" font-size="12px"><text x="614.5" y="479.5">FK</text></g><path d="M 630 460 M 840 460 M 840 490 M 630 490" fill="none" stroke="#000000" stroke-miterlimit="10" pointer-events="none"/><g fill="#000000" font-family="Helvetica" pointer-events="none" clip-path="url(#mx-clip-636-460-204-30-0)" font-size="12px"><text x="637.5" y="479.5">user_id VARCHAR(64) NOT NULL</text></g><path d="M 600 490 M 840 490 M 840 520 M 600 520" fill="none" stroke="#000000" stroke-miterlimit="10" pointer-events="none"/><path d="M 600 490 M 630 490 M 630 520 M 600 520" fill="none" stroke="#000000" stroke-miterlimit="10" pointer-events="none"/><g fill="#000000" font-family="Helvetica" pointer-events="none" clip-path="url(#mx-clip-600-490-30-30-0)" text-anchor="middle" font-size="12px"><text x="614.5" y="509.5">FK</text></g><path d="M 630 490 M 840 490 M 840 520 M 630 520" fill="none" stroke="#000000" stroke-miterlimit="10" pointer-events="none"/><g fill="#000000" font-family="Helvetica" pointer-events="none" clip-path="url(#mx-clip-636-490-204-30-0)" font-size="12px"><text x="637.5" y="509.5">poem_id VARCHAR(64) NOT NULL</text></g><path d="M 600 520 M 840 520 M 840 550 M 600 550" fill="none" stroke="#000000" stroke-miterlimit="10" pointer-events="none"/><path d="M 600 520 M 630 520 M 630 550 M 600 550" fill="none" stroke="#000000" stroke-miterlimit="10" pointer-events="none"/><g fill="#000000" font-family="Helvetica" pointer-events="none" clip-path="url(#mx-clip-600-520-30-30-0)" text-anchor="middle" font-size="12px"><text x="614.5" y="539.5">FK</text></g><path d="M 630 520 M 840 520 M 840 550 M 630 550" fill="none" stroke="#000000" stroke-miterlimit="10" pointer-events="none"/><g fill="#000000" font-family="Helvetica" pointer-events="none" clip-path="url(#mx-clip-636-520-204-30-0)" font-size="12px"><text x="637.5" y="539.5">comment_id VARCHAR(64)</text></g><path d="M 600 550 M 840 550 M 840 580 M 600 580" fill="none" stroke="#000000" stroke-miterlimit="10" pointer-events="none"/><path d="M 600 550 M 630 550 M 630 580 M 600 580" fill="none" stroke="#000000" stroke-miterlimit="10" pointer-events="none"/><path d="M 630 550 M 840 550 M 840 580 M 630 580" fill="none" stroke="#000000" stroke-miterlimit="10" pointer-events="none"/><g fill="#000000" font-family="Helvetica" pointer-events="none" clip-path="url(#mx-clip-636-550-204-30-0)" font-size="12px"><text x="637.5" y="569.5">text VARCHAR(400) NOT NULL</text></g><path d="M 840 380 L 880 380 L 880 535 L 840 535" fill="none" stroke="#000000" stroke-miterlimit="10" pointer-events="none"/><ellipse cx="852" cy="380" rx="3" ry="3" fill="none" stroke="#000000" pointer-events="none"/><path d="M 844 376 L 844 384" fill="none" stroke="#000000" stroke-miterlimit="10" pointer-events="none"/><ellipse cx="852" cy="535" rx="3" ry="3" fill="none" stroke="#000000" pointer-events="none"/><path d="M 840 539 L 848 535 L 840 531" fill="none" stroke="#000000" stroke-miterlimit="10" pointer-events="none"/><path d="M 415 170 L 415 65 L 510 65" fill="none" stroke="#000000" stroke-miterlimit="10" pointer-events="none"/><path d="M 411 166 L 419 166 M 411 162 L 419 162" fill="none" stroke="#000000" stroke-miterlimit="10" pointer-events="none"/><ellipse cx="498" cy="65" rx="3" ry="3" fill="none" stroke="#000000" pointer-events="none"/><path d="M 510 61 L 502 65 L 510 69" fill="none" stroke="#000000" stroke-miterlimit="10" pointer-events="none"/><path d="M 290 190 L 290 170 L 540 170 L 540 190" fill="#ffffff" stroke="#000000" stroke-miterlimit="10" pointer-events="none"/><path d="M 290 190 L 290 490 L 540 490 L 540 190" fill="none" stroke="#000000" stroke-miterlimit="10" pointer-events="none"/><path d="M 290 190 L 540 190" fill="none" stroke="#000000" stroke-miterlimit="10" pointer-events="none"/><path d="M 320 190 L 320 490" fill="none" stroke="#000000" stroke-miterlimit="10" pointer-events="none"/><g fill="#000000" font-family="Helvetica" font-weight="bold" pointer-events="none" text-anchor="middle" font-size="12px"><text x="414.5" y="184.5">users</text></g><path d="M 290 190 M 540 190 M 540 220 L 290 220" fill="none" stroke="#000000" stroke-miterlimit="10" pointer-events="none"/><path d="M 290 190 M 320 190 M 320 220 M 290 220" fill="none" stroke="#000000" stroke-miterlimit="10" pointer-events="none"/><g fill="#000000" font-family="Helvetica" font-weight="bold" pointer-events="none" clip-path="url(#mx-clip-290-190-30-30-0)" text-anchor="middle" font-size="12px"><text x="304.5" y="209.5">PK</text></g><path d="M 320 190 M 540 190 M 540 220 M 320 220" fill="none" stroke="#000000" stroke-miterlimit="10" pointer-events="none"/><g fill="#000000" font-family="Helvetica" font-weight="bold" text-decoration="underline" pointer-events="none" clip-path="url(#mx-clip-326-190-214-30-0)" font-size="12px"><text x="327.5" y="209.5">id VARCHAR(64) NOT NULL </text></g><path d="M 290 220 M 540 220 M 540 250 M 290 250" fill="none" stroke="#000000" stroke-miterlimit="10" pointer-events="none"/><path d="M 290 220 M 320 220 M 320 250 M 290 250" fill="none" stroke="#000000" stroke-miterlimit="10" pointer-events="none"/><path d="M 320 220 M 540 220 M 540 250 M 320 250" fill="none" stroke="#000000" stroke-miterlimit="10" pointer-events="none"/><g fill="#000000" font-family="Helvetica" pointer-events="none" clip-path="url(#mx-clip-326-220-214-30-0)" font-size="12px"><text x="327.5" y="239.5">created_on DATE NOT NULL</text></g><path d="M 290 250 M 540 250 M 540 280 M 290 280" fill="none" stroke="#000000" stroke-miterlimit="10" pointer-events="none"/><path d="M 290 250 M 320 250 M 320 280 M 290 280" fill="none" stroke="#000000" stroke-miterlimit="10" pointer-events="none"/><path d="M 320 250 M 540 250 M 540 280 M 320 280" fill="none" stroke="#000000" stroke-miterlimit="10" pointer-events="none"/><g fill="#000000" font-family="Helvetica" pointer-events="none" clip-path="url(#mx-clip-326-250-214-30-0)" font-size="12px"><text x="327.5" y="269.5">updated_on DATE NOT NULL</text></g><path d="M 290 280 M 540 280 M 540 310 M 290 310" fill="none" stroke="#000000" stroke-miterlimit="10" pointer-events="none"/><path d="M 290 280 M 320 280 M 320 310 M 290 310" fill="none" stroke="#000000" stroke-miterlimit="10" pointer-events="none"/><path d="M 320 280 M 540 280 M 540 310 M 320 310" fill="none" stroke="#000000" stroke-miterlimit="10" pointer-events="none"/><g fill="#000000" font-family="Helvetica" pointer-events="none" clip-path="url(#mx-clip-326-280-214-30-0)" font-size="12px"><text x="327.5" y="299.5">name VARCHAR(128) NOT NULL</text></g><path d="M 290 310 M 540 310 M 540 340 M 290 340" fill="none" stroke="#000000" stroke-miterlimit="10" pointer-events="none"/><path d="M 290 310 M 320 310 M 320 340 M 290 340" fill="none" stroke="#000000" stroke-miterlimit="10" pointer-events="none"/><path d="M 320 310 M 540 310 M 540 340 M 320 340" fill="none" stroke="#000000" stroke-miterlimit="10" pointer-events="none"/><g fill="#000000" font-family="Helvetica" pointer-events="none" clip-path="url(#mx-clip-326-310-214-30-0)" font-size="12px"><text x="327.5" y="329.5">bio VARCHAR(256)</text></g><path d="M 290 340 M 540 340 M 540 370 M 290 370" fill="none" stroke="#000000" stroke-miterlimit="10" pointer-events="none"/><path d="M 290 340 M 320 340 M 320 370 M 290 370" fill="none" stroke="#000000" stroke-miterlimit="10" pointer-events="none"/><path d="M 320 340 M 540 340 M 540 370 M 320 370" fill="none" stroke="#000000" stroke-miterlimit="10" pointer-events="none"/><g fill="#000000" font-family="Helvetica" pointer-events="none" clip-path="url(#mx-clip-326-340-214-30-0)" font-size="12px"><text x="327.5" y="359.5">email VARCHAR(320) NOT NULL</text></g><path d="M 290 370 M 540 370 M 540 400 M 290 400" fill="none" stroke="#000000" stroke-miterlimit="10" pointer-events="none"/><path d="M 290 370 M 320 370 M 320 400 M 290 400" fill="none" stroke="#000000" stroke-miterlimit="10" pointer-events="none"/><path d="M 320 370 M 540 370 M 540 400 M 320 400" fill="none" stroke="#000000" stroke-miterlimit="10" pointer-events="none"/><g fill="#000000" font-family="Helvetica" pointer-events="none" clip-path="url(#mx-clip-326-370-214-30-0)" font-size="12px"><text x="327.5" y="389.5">profile_photo_src TEXT NOT NULL</text></g><path d="M 290 400 M 540 400 M 540 430 M 290 430" fill="none" stroke="#000000" stroke-miterlimit="10" pointer-events="none"/><path d="M 290 400 M 320 400 M 320 430 M 290 430" fill="none" stroke="#000000" stroke-miterlimit="10" pointer-events="none"/><path d="M 320 400 M 540 400 M 540 430 M 320 430" fill="none" stroke="#000000" stroke-miterlimit="10" pointer-events="none"/><g fill="#000000" font-family="Helvetica" pointer-events="none" clip-path="url(#mx-clip-326-400-214-30-0)" font-size="12px"><text x="327.5" y="419.5">sign_in_attempts INT NOT NULL</text></g><path d="M 290 430 M 540 430 M 540 460 M 290 460" fill="none" stroke="#000000" stroke-miterlimit="10" pointer-events="none"/><path d="M 290 430 M 320 430 M 320 460 M 290 460" fill="none" stroke="#000000" stroke-miterlimit="10" pointer-events="none"/><path d="M 320 430 M 540 430 M 540 460 M 320 460" fill="none" stroke="#000000" stroke-miterlimit="10" pointer-events="none"/><g fill="#000000" font-family="Helvetica" pointer-events="none" clip-path="url(#mx-clip-326-430-214-30-0)" font-size="12px"><text x="327.5" y="449.5">is_active Boolean NOT NULL</text></g><path d="M 290 460 M 540 460 M 540 490 M 290 490" fill="none" stroke="#000000" stroke-miterlimit="10" pointer-events="none"/><path d="M 290 460 M 320 460 M 320 490 M 290 490" fill="none" stroke="#000000" stroke-miterlimit="10" pointer-events="none"/><path d="M 320 460 M 540 460 M 540 490 M 320 490" fill="none" stroke="#000000" stroke-miterlimit="10" pointer-events="none"/><g fill="#000000" font-family="Helvetica" pointer-events="none" clip-path="url(#mx-clip-326-460-214-30-0)" font-size="12px"><text x="327.5" y="479.5">password_hash TEXT NOT NULL</text></g><path d="M 510 20 L 510 0 L 750 0 L 750 20" fill="#ffffff" stroke="#000000" stroke-miterlimit="10" pointer-events="none"/><path d="M 510 20 L 510 110 L 750 110 L 750 20" fill="none" stroke="#000000" stroke-miterlimit="10" pointer-events="none"/><path d="M 510 20 L 750 20" fill="none" stroke="#000000" stroke-miterlimit="10" pointer-events="none"/><path d="M 540 20 L 540 110" fill="none" stroke="#000000" stroke-miterlimit="10" pointer-events="none"/><g fill="#000000" font-family="Helvetica" font-weight="bold" pointer-events="none" text-anchor="middle" font-size="12px"><text x="629.5" y="14.5">poems_likes</text></g><path d="M 510 20 M 750 20 M 750 50 L 510 50" fill="none" stroke="#000000" stroke-miterlimit="10" pointer-events="none"/><path d="M 510 20 M 540 20 M 540 50 M 510 50" fill="none" stroke="#000000" stroke-miterlimit="10" pointer-events="none"/><g fill="#000000" font-family="Helvetica" font-weight="bold" pointer-events="none" clip-path="url(#mx-clip-510-20-30-30-0)" text-anchor="middle" font-size="12px"><text x="524.5" y="39.5">PK</text></g><path d="M 540 20 M 750 20 M 750 50 M 540 50" fill="none" stroke="#000000" stroke-miterlimit="10" pointer-events="none"/><g fill="#000000" font-family="Helvetica" font-weight="bold" text-decoration="underline" pointer-events="none" clip-path="url(#mx-clip-546-20-204-30-0)" font-size="12px"><text x="547.5" y="39.5">id VARCHAR(64) NOT NULL</text></g><path d="M 510 50 M 750 50 M 750 80 M 510 80" fill="none" stroke="#000000" stroke-miterlimit="10" pointer-events="none"/><path d="M 510 50 M 540 50 M 540 80 M 510 80" fill="none" stroke="#000000" stroke-miterlimit="10" pointer-events="none"/><g fill="#000000" font-family="Helvetica" pointer-events="none" clip-path="url(#mx-clip-510-50-30-30-0)" text-anchor="middle" font-size="12px"><text x="524.5" y="69.5">FK</text></g><path d="M 540 50 M 750 50 M 750 80 M 540 80" fill="none" stroke="#000000" stroke-miterlimit="10" pointer-events="none"/><g fill="#000000" font-family="Helvetica" pointer-events="none" clip-path="url(#mx-clip-546-50-204-30-0)" font-size="12px"><text x="547.5" y="69.5">user_id VARCHAR(64) NOT NULL</text></g><path d="M 510 80 M 750 80 M 750 110 M 510 110" fill="none" stroke="#000000" stroke-miterlimit="10" pointer-events="none"/><path d="M 510 80 M 540 80 M 540 110 M 510 110" fill="none" stroke="#000000" stroke-miterlimit="10" pointer-events="none"/><g fill="#000000" font-family="Helvetica" pointer-events="none" clip-path="url(#mx-clip-510-80-30-30-0)" text-anchor="middle" font-size="12px"><text x="524.5" y="99.5">FK</text></g><path d="M 540 80 M 750 80 M 750 110 M 540 110" fill="none" stroke="#000000" stroke-miterlimit="10" pointer-events="none"/><g fill="#000000" font-family="Helvetica" pointer-events="none" clip-path="url(#mx-clip-546-80-204-30-0)" font-size="12px"><text x="547.5" y="99.5">poem_id VARCHAR(64) NOT NULL</text></g><path d="M 775 145 L 775 95 L 750 95" fill="none" stroke="#000000" stroke-miterlimit="10" pointer-events="none"/><path d="M 771 141 L 779 141 M 771 137 L 779 137" fill="none" stroke="#000000" stroke-miterlimit="10" pointer-events="none"/><ellipse cx="762" cy="95" rx="3" ry="3" fill="#ffffff" stroke="#000000" pointer-events="none"/><path d="M 750 99 L 758 95 L 750 91" fill="none" stroke="#000000" stroke-miterlimit="10" pointer-events="none"/><path d="M 650 205 L 540 205" fill="none" stroke="#000000" stroke-miterlimit="10" pointer-events="none"/><ellipse cx="638" cy="205" rx="3" ry="3" fill="#ffffff" stroke="#000000" pointer-events="none"/><path d="M 650 201 L 642 205 L 650 209" fill="none" stroke="#000000" stroke-miterlimit="10" pointer-events="none"/><path d="M 544 201 L 544 209 M 548 201 L 548 209" fill="none" stroke="#000000" stroke-miterlimit="10" pointer-events="none"/><path d="M 840 505 L 920 505 L 920 175 L 900 175" fill="none" stroke="#000000" stroke-miterlimit="10" pointer-events="none"/><ellipse cx="852" cy="505" rx="3" ry="3" fill="#ffffff" stroke="#000000" pointer-events="none"/><path d="M 840 509 L 848 505 L 840 501" fill="none" stroke="#000000" stroke-miterlimit="10" pointer-events="none"/><path d="M 904 171 L 904 179 M 908 171 L 908 179" fill="none" stroke="#000000" stroke-miterlimit="10" pointer-events="none"/><path d="M 600 475 L 570 475 L 570 325 L 540 325" fill="none" stroke="#000000" stroke-miterlimit="10" pointer-events="none"/><ellipse cx="588" cy="475" rx="3" ry="3" fill="#ffffff" stroke="#000000" pointer-events="none"/><path d="M 600 471 L 592 475 L 600 479" fill="none" stroke="#000000" stroke-miterlimit="10" pointer-events="none"/><path d="M 544 321 L 544 329 M 548 321 L 548 329" fill="none" stroke="#000000" stroke-miterlimit="10" pointer-events="none"/><path d="M 0 220 L 0 200 L 250 200 L 250 220" fill="#ffffff" stroke="#000000" stroke-miterlimit="10" pointer-events="none"/><path d="M 0 220 L 0 310 L 250 310 L 250 220" fill="none" stroke="#000000" stroke-miterlimit="10" pointer-events="none"/><path d="M 0 220 L 250 220" fill="none" stroke="#000000" stroke-miterlimit="10" pointer-events="none"/><path d="M 30 220 L 30 310" fill="none" stroke="#000000" stroke-miterlimit="10" pointer-events="none"/><g fill="#000000" font-family="Helvetica" font-weight="bold" pointer-events="none" text-anchor="middle" font-size="12px"><text x="124.5" y="214.5">users_followings</text></g><path d="M 0 220 M 250 220 M 250 250 L 0 250" fill="none" stroke="#000000" stroke-miterlimit="10" pointer-events="none"/><path d="M 0 220 M 30 220 M 30 250 M 0 250" fill="none" stroke="#000000" stroke-miterlimit="10" pointer-events="none"/><g fill="#000000" font-family="Helvetica" font-weight="bold" pointer-events="none" clip-path="url(#mx-clip-0-220-30-30-0)" text-anchor="middle" font-size="12px"><text x="14.5" y="239.5">PK</text></g><path d="M 30 220 M 250 220 M 250 250 M 30 250" fill="none" stroke="#000000" stroke-miterlimit="10" pointer-events="none"/><g fill="#000000" font-family="Helvetica" font-weight="bold" text-decoration="underline" pointer-events="none" clip-path="url(#mx-clip-36-220-214-30-0)" font-size="12px"><text x="37.5" y="239.5">id VARCHAR(64) NOT NULL</text></g><path d="M 0 250 M 250 250 M 250 280 M 0 280" fill="none" stroke="#000000" stroke-miterlimit="10" pointer-events="none"/><path d="M 0 250 M 30 250 M 30 280 M 0 280" fill="none" stroke="#000000" stroke-miterlimit="10" pointer-events="none"/><g fill="#000000" font-family="Helvetica" pointer-events="none" clip-path="url(#mx-clip-0-250-30-30-0)" text-anchor="middle" font-size="12px"><text x="14.5" y="269.5">FK</text></g><path d="M 30 250 M 250 250 M 250 280 M 30 280" fill="none" stroke="#000000" stroke-miterlimit="10" pointer-events="none"/><g fill="#000000" font-family="Helvetica" pointer-events="none" clip-path="url(#mx-clip-36-250-214-30-0)" font-size="12px"><text x="37.5" y="269.5">follower_id VARCHAR(64) NOT NULL</text></g><path d="M 0 280 M 250 280 M 250 310 M 0 310" fill="none" stroke="#000000" stroke-miterlimit="10" pointer-events="none"/><path d="M 0 280 M 30 280 M 30 310 M 0 310" fill="none" stroke="#000000" stroke-miterlimit="10" pointer-events="none"/><g fill="#000000" font-family="Helvetica" pointer-events="none" clip-path="url(#mx-clip-0-280-30-30-0)" text-anchor="middle" font-size="12px"><text x="14.5" y="299.5">FK</text></g><path d="M 30 280 M 250 280 M 250 310 M 30 310" fill="none" stroke="#000000" stroke-miterlimit="10" pointer-events="none"/><g fill="#000000" font-family="Helvetica" pointer-events="none" clip-path="url(#mx-clip-36-280-214-30-0)" font-size="12px"><text x="37.5" y="299.5">following_id VARCHAR(64) NOT NULL</text></g><path d="M 250 235 L 290 235" fill="none" stroke="#000000" stroke-miterlimit="10" pointer-events="none"/><ellipse cx="262" cy="235" rx="3" ry="3" fill="#ffffff" stroke="#000000" pointer-events="none"/><path d="M 250 239 L 258 235 L 250 231" fill="none" stroke="#000000" stroke-miterlimit="10" pointer-events="none"/><path d="M 286 239 L 286 231 M 282 239 L 282 231" fill="none" stroke="#000000" stroke-miterlimit="10" pointer-events="none"/></g></svg>